<svg id="Layer_1" data-name="Layer 1" xmlns="http://www.w3.org/2000/svg" viewBox="0 0 86 74"><defs><style>.cls-1{fill:#fff;}</style></defs><title>Icon-7</title><path class="cls-1" d="M49.91,2.75a1,1,0,0,0-.31.09l-42,18a1,1,0,0,0-.59.91v6a1,1,0,0,0,1,1H22v30H14.91a1,1,0,0,0-.91,1v6H8a1,1,0,0,0-1,1v9a1,1,0,0,0,1,1H92a1,1,0,0,0,1-1v-9a1,1,0,0,0-1-1H86v-6a1,1,0,0,0-1-1H78v-30H92a1,1,0,0,0,1-1v-6a1,1,0,0,0-.59-.91l-42-18A1,1,0,0,0,49.91,2.75ZM50,4.84,91,22.41v4.34H9V22.41ZM24,28.75h6v30H24Zm8,0H45v30H32Zm15,0h6v30H47Zm8,0H68v30H55Zm15,0h6v30H70Zm-54,32H84v6a1,1,0,0,0,1,1h6v7H9v-7h6a1,1,0,0,0,1-1Z" transform="translate(-7 -2.75)"/></svg>