<svg id="Layer_1" data-name="Layer 1" xmlns="http://www.w3.org/2000/svg" viewBox="0 0 201.95 202.12"><defs><style>.cls-1{fill:#fff;}</style></defs><title>Icons-08</title><path class="cls-1" d="M119.82,128a57.74,57.74,0,1,1,57.74-57.74A57.81,57.81,0,0,1,119.82,128Zm0-107.79a50,50,0,1,0,50,50A50.1,50.1,0,0,0,119.82,20.24Z" transform="translate(-18.85 -12.54)"/><path class="cls-1" d="M216.95,214.66H22.7a3.85,3.85,0,0,1-3.85-3.85v-6.92a65.52,65.52,0,0,1,65.44-65.44h71.07a65.52,65.52,0,0,1,65.44,65.44v6.92A3.85,3.85,0,0,1,216.95,214.66ZM26.54,207H213.1v-3.07a57.81,57.81,0,0,0-57.74-57.74H84.29a57.81,57.81,0,0,0-57.74,57.74Z" transform="translate(-18.85 -12.54)"/></svg>