<svg id="Layer_1" data-name="Layer 1" xmlns="http://www.w3.org/2000/svg" viewBox="0 0 100 74.76"><defs><style>.cls-1{fill:none;stroke:#fff;stroke-linecap:round;stroke-linejoin:round;}</style></defs><title>Icons</title><path class="cls-1" d="M74.87,33.91H60.79q-.74,1-1.53,2.09c-3.56,4.72-7.79,9.63-10.82,14.83-3-5.23-7.25-10.28-10.82-15.08q-.69-.93-1.34-1.84H20.75L9.9,64H85.71Z"/><path class="cls-1" d="M60.79,33.91c3.16-4.44,5.44-8.7,5.44-12.69,0-9.54-8-18.49-17.79-18.49h0c-9.82,0-17.79,8.25-17.79,18.49,0,3.76,2.38,8.09,5.64,12.69"/><path class="cls-1" d="M36.28,33.91q.65.91,1.34,1.84c3.57,4.8,7.79,9.85,10.82,15.08,3-5.2,7.26-10.11,10.82-14.83q.79-1.05,1.53-2.09"/></svg>