<svg id="Layer_1" data-name="Layer 1" xmlns="http://www.w3.org/2000/svg" viewBox="0 0 100 74.76"><defs><style>.cls-1{fill:#fff;}</style></defs><title>Icons</title><path class="cls-1" d="M83.75,8.94h-39c-2,0-2.9-1.36-3.79-2.67s-2-2.9-4.41-2.9H19.88c-2.55,0-4.63,2.74-4.63,6.12V17a5.24,5.24,0,0,1,4.63-2.9H83.75A5.24,5.24,0,0,1,88.38,17v-2C88.38,11.68,86.31,8.94,83.75,8.94Z"/><path class="cls-1" d="M83.75,8.29h-39c-1.64,0-2.39-1.1-3.26-2.39-1-1.49-2.16-3.18-4.95-3.18H19.88c-2.91,0-5.27,3-5.27,6.76V57.05a5.37,5.37,0,0,0,5.27,5.46H83.75A5.37,5.37,0,0,0,89,57.05v-42C89,11.33,86.66,8.29,83.75,8.29Zm4.63,12.31V57.06a4.73,4.73,0,0,1-4.63,4.81H19.87a4.73,4.73,0,0,1-4.63-4.81V19.57a4.73,4.73,0,0,1,4.63-4.81H83.75a4.73,4.73,0,0,1,4.63,4.81Zm0-3.6a5.24,5.24,0,0,0-4.63-2.9H19.87A5.24,5.24,0,0,0,15.24,17V9.49c0-3.37,2.08-6.12,4.63-6.12H36.59C39,3.37,40,4.84,41,6.27s1.81,2.67,3.79,2.67h39c2.55,0,4.63,2.74,4.63,6.12Z"/><path class="cls-1" d="M50.22,52.88c-6-.24-9-3.59-9.64-7.91h.77c.57,3.79,3.15,7,8.88,7.22V37.83c-6.25-1-8.63-3.27-8.63-7.1,0-4.44,3.47-7.06,8.63-7.18V19.83h.73v3.71c4.68.16,7.5,2.58,8.23,6.42h-.77c-.69-3.39-3.11-5.61-7.46-5.73v13c6.42.93,9.24,2.58,9.24,7.91,0,4.24-3.31,7.71-9.24,7.75v5.21h-.73Zm0-15.78V24.23c-4.8.12-7.87,2.3-7.87,6.5C42.35,34.24,44.41,36.17,50.22,37.1Zm.73.81V52.19c5.49,0,8.47-3.11,8.47-7.06C59.42,40.33,56.92,38.8,50.95,37.91Z"/></svg>