<svg id="Layer_1" data-name="Layer 1" xmlns="http://www.w3.org/2000/svg" viewBox="0 0 100 76.35"><defs><style>.cls-1{fill:none;stroke:#fff;stroke-linecap:round;stroke-linejoin:round;}</style></defs><title>Icons</title><circle class="cls-1" cx="41.39" cy="16.94" r="13.79"/><path class="cls-1" d="M68.4,46.9l-.22-1.45a12.55,12.55,0,0,0-11.62-9.2H26.23a12.56,12.56,0,0,0-11.62,9.2L12,62.25h45"/><path class="cls-1" d="M57.08,62.25A13.68,13.68,0,1,0,57,60.47a14,14,0,0,0,.13,1.77"/><line class="cls-1" x1="62.34" y1="57.46" x2="78.67" y2="57.46"/><polyline class="cls-1" points="77.59 55.9 79.15 57.46 77.59 59.01"/><line class="cls-1" x1="79.15" y1="63.49" x2="62.82" y2="63.49"/><polyline class="cls-1" points="63.89 61.94 62.34 63.49 63.89 65.04"/></svg>