<svg id="Layer_1" data-name="Layer 1" xmlns="http://www.w3.org/2000/svg" viewBox="0 0 100 74.76"><defs><style>.cls-1,.cls-2{fill:none;stroke:#fff;}.cls-1{stroke-miterlimit:10;stroke-width:0.78px;}.cls-2{stroke-linecap:round;stroke-linejoin:round;stroke-width:1.08px;}.cls-3{fill:#fff;}</style></defs><title>Icons</title><path class="cls-1" d="M59.59,23.39a14,14,0,0,1,13.7-14,3.83,3.83,0,0,0-3.52-2.35H30.23a3.83,3.83,0,0,0-3.82,3.82v51.7a3.83,3.83,0,0,0,3.82,3.82H69.77a3.83,3.83,0,0,0,3.82-3.82V37.38A14,14,0,0,1,59.59,23.39Z"/><path class="cls-2" d="M73.58,37.38a14,14,0,0,0,0-28h-.3"/><path class="cls-1" d="M73.29,9.42a14,14,0,0,0,.3,28"/><path class="cls-3" d="M73.34,23l-5.65-8.26h.51l5.45,8,5.43-8h.51L73.92,23l6.18,9h-.51l-6-8.72-6,8.72h-.51Z"/></svg>