<svg id="Layer_1" data-name="Layer 1" xmlns="http://www.w3.org/2000/svg" viewBox="0 0 100 74.76"><defs><style>.cls-1{fill:#fff;}</style></defs><title>Icons</title><path class="cls-1" d="M22.36,20c0-7.57,5.61-12.53,12-12.53,6.59,0,12,5,12,12.36,0,7.81-5.69,12.36-12,12.36A11.78,11.78,0,0,1,22.36,20Zm22.53-.16C44.89,13,40.09,8.8,34.32,8.8,28.79,8.8,23.82,13,23.82,20c0,6.83,5,10.9,10.49,10.9C39.93,30.93,44.89,26.86,44.89,19.87Zm22.37-12h1.63L30.09,66H28.46ZM51,54.19c0-7.57,5.61-12.53,12-12.53,6.59,0,12,5,12,12.36,0,7.81-5.69,12.36-12,12.36A11.77,11.77,0,0,1,51,54.19ZM73.53,54C73.53,47.2,68.73,43,63,43c-5.53,0-10.49,4.23-10.49,11.23,0,6.83,5,10.9,10.49,10.9C68.56,65.09,73.53,61,73.53,54Z"/></svg>